<?xml version="1.0" standalone="no"?>
<!DOCTYPE svg PUBLIC "-//W3C//DTD SVG 20010904//EN"
 "http://www.w3.org/TR/2001/REC-SVG-20010904/DTD/svg10.dtd">
<svg version="1.0" xmlns="http://www.w3.org/2000/svg"
 width="169.000000pt" height="169.000000pt" viewBox="0 0 169.000000 169.000000"
 preserveAspectRatio="xMidYMid meet">

<g transform="translate(0.000000,169.000000) scale(0.100000,-0.100000)"
fill="#000000" stroke="none">
<path d="M665 1670 c-60 -13 -123 -36 -190 -69 -179 -89 -298 -209 -386 -387
-118 -239 -118 -498 0 -738 87 -178 206 -297 386 -387 348 -173 771 -82 1021
219 117 141 194 354 194 537 0 183 -77 396 -194 537 -201 242 -520 353 -831
288z m343 -70 c204 -42 388 -173 501 -357 38 -62 86 -190 96 -254 l7 -46 -34
-6 c-50 -10 -263 -35 -348 -42 l-75 -6 -22 48 c-34 75 -77 119 -150 155 -95
46 -181 46 -276 0 -73 -36 -116 -81 -150 -155 l-22 -49 -65 6 c-191 18 -281
29 -285 36 -10 16 36 165 72 233 51 97 173 219 270 270 80 42 203 77 273 77
53 0 84 18 78 46 -3 17 -12 19 -93 18 -107 -2 -215 -33 -315 -91 -83 -48 -214
-180 -262 -261 -32 -56 -77 -178 -93 -254 -3 -17 -12 -28 -21 -28 -22 0 -11
69 27 173 132 362 504 567 887 487z m-44 -578 c117 -64 160 -204 98 -323 -94
-180 -340 -179 -435 1 -25 48 -28 64 -25 121 5 88 42 151 117 196 29 18 65 34
80 36 48 8 115 -4 165 -31z m-709 -176 c66 -8 155 -18 198 -21 60 -5 77 -10
77 -22 0 -14 -13 -15 -100 -9 -99 6 -309 32 -342 42 -10 3 -18 12 -18 21 0 12
7 14 33 9 17 -3 86 -12 152 -20z m1365 10 c0 -8 -8 -17 -17 -20 -34 -10 -244
-36 -343 -42 -87 -6 -100 -5 -100 9 0 12 17 17 78 22 97 8 324 35 337 40 23 8
45 4 45 -9z m-1265 -126 c190 -16 192 -17 199 -44 13 -51 83 -123 152 -157 96
-47 182 -47 278 0 69 34 139 106 152 156 5 19 14 25 47 29 94 11 322 34 324
32 8 -7 -44 -162 -75 -221 -49 -94 -172 -217 -269 -268 -80 -42 -203 -77 -273
-77 -53 0 -84 -18 -78 -46 3 -17 12 -19 93 -18 311 5 597 257 665 587 9 44 16
57 29 57 17 0 18 -4 5 -64 -51 -242 -201 -438 -420 -546 -95 -47 -233 -80
-339 -80 -315 0 -610 203 -720 495 -25 66 -56 191 -49 198 2 2 36 -2 76 -9 40
-7 132 -18 203 -24z"/>
<path d="M804 980 c-148 -35 -180 -233 -53 -317 113 -75 269 10 269 147 0 110
-109 196 -216 170z m119 -101 c68 -83 -7 -195 -111 -167 -37 10 -72 58 -72 98
0 40 35 88 72 98 41 11 88 -1 111 -29z"/>
</g>
</svg>
